<svg viewBox="15.87 5.68 119.291 118.306" width="119.291" height="118.306" xmlns="http://www.w3.org/2000/svg"><defs><linearGradient id="b" x1="17.887" y1="122.356" x2="17.887" y2="5.406" gradientTransform="matrix(1.00499 0 0 .99504 -2.106 .301)" gradientUnits="userSpaceOnUse"><stop offset="0%" stop-color="#fe9d03"/><stop offset="100%" stop-color="#fefd05"/></linearGradient><linearGradient id="c" x1="17.887" y1="5.406" x2="17.887" y2="122.356" gradientTransform="matrix(1.00499 0 0 .99504 -2.106 .301)" gradientUnits="userSpaceOnUse"><stop offset="0%" stop-color="#fff" stop-opacity=".35"/><stop offset="50%" stop-color="#fff" stop-opacity=".1"/><stop offset="100%" stop-color="#fff" stop-opacity="0"/></linearGradient><radialGradient id="a" cx="101.5" cy="100.912" r="116.951" gradientTransform="matrix(1.00499 0 0 .99504 -2.106 .301)" fx="101.5" fy="100.912" gradientUnits="userSpaceOnUse"><stop offset="0%" stop-opacity=".2"/><stop offset="100%" stop-opacity="0"/></radialGradient></defs><ellipse cx="76.394" cy="65.801" rx="58.767" ry="58.185" fill="url(#a)" style="fill:url(#a)"/><ellipse cx="74.637" cy="63.865" rx="58.767" ry="58.185" fill="url(#b)" style="fill:url(#b)"/><ellipse cx="74.637" cy="63.865" rx="58.767" ry="58.185" fill="url(#c)" style="fill:url(#c)"/><g aria-label="TC" style="font-size:116px;font-family:&quot;Bebas Neue&quot;;-inkscape-font-specification:&quot;Bebas Neue, Normal&quot;;fill:#090500;stroke:#000"><path d="M48.786 36.801h-13.34v-11.6h39.44v11.6h-13.34v69.6h-12.76zM98.55 107.561q-9.164 0-14.036-5.22-4.756-5.22-4.756-14.732V43.993q0-9.512 4.756-14.732 4.872-5.22 14.036-5.22t13.92 5.22q4.872 5.22 4.872 14.732v8.584h-12.064v-9.396q0-7.54-6.38-7.54t-6.38 7.54v45.356q0 7.424 6.38 7.424t6.38-7.424V76.125h12.064v11.484q0 9.512-4.872 14.732-4.756 5.22-13.92 5.22z"/></g></svg>
