<svg width="64" height="64" viewBox="0 0 64 64" fill="none" xmlns="http://www.w3.org/2000/svg" stroke="currentColor" stroke-width="2">
    <!-- Tower body -->
    <rect x="20" y="24" width="24" height="28" fill="none" rx="2" ry="2"/>
    <!-- Cooling fins along bottom -->
    <line x1="22" y1="48" x2="22" y2="52" stroke-linecap="round"/>
    <line x1="26" y1="48" x2="26" y2="52" stroke-linecap="round"/>
    <line x1="30" y1="48" x2="30" y2="52" stroke-linecap="round"/>
    <line x1="34" y1="48" x2="34" y2="52" stroke-linecap="round"/>
    <line x1="38" y1="48" x2="38" y2="52" stroke-linecap="round"/>
    <line x1="42" y1="48" x2="42" y2="52" stroke-linecap="round"/>
    <!-- Stilts -->
    <line x1="24" y1="52" x2="24" y2="60" stroke-linecap="round"/>
    <line x1="44" y1="52" x2="44" y2="60" stroke-linecap="round"/>
    <!-- Pipes on top -->
    <line x1="28" y1="24" x2="28" y2="16" stroke-linecap="round"/>
    <line x1="36" y1="24" x2="36" y2="14" stroke-linecap="round"/>
    <line x1="44" y1="24" x2="44" y2="18" stroke-linecap="round"/>
    <!-- Pipe connectors -->
    <line x1="28" y1="16" x2="36" y2="14" stroke-linecap="round"/>
    <line x1="36" y1="14" x2="44" y2="18" stroke-linecap="round"/>
</svg>
